<svg width="64" height="64" viewBox="0 0 64 64" fill="none" xmlns="http://www.w3.org/2000/svg">
  <defs>
    <linearGradient id="oceanGradient" x1="0%" y1="0%" x2="100%" y2="100%">
      <stop offset="0%" style="stop-color:#0EA5E9;stop-opacity:1" />
      <stop offset="50%" style="stop-color:#0284C7;stop-opacity:1" />
      <stop offset="100%" style="stop-color:#0369A1;stop-opacity:1" />
    </linearGradient>
    <linearGradient id="shipGradient" x1="0%" y1="0%" x2="100%" y2="100%">
      <stop offset="0%" style="stop-color:#F59E0B;stop-opacity:1" />
      <stop offset="100%" style="stop-color:#D97706;stop-opacity:1" />
    </linearGradient>
  </defs>
  
  <!-- Ocean background -->
  <rect x="0" y="0" width="64" height="64" fill="url(#oceanGradient)" rx="8"/>
  
  <!-- Container ship body -->
  <rect x="8" y="20" width="48" height="32" rx="2" fill="url(#shipGradient)" stroke="#D97706" stroke-width="2"/>
  
  <!-- Container doors -->
  <line x1="32" y1="20" x2="32" y2="52" stroke="#D97706" stroke-width="1.5"/>
  <circle cx="28" cy="36" r="2" fill="#D97706"/>
  <circle cx="36" cy="36" r="2" fill="#D97706"/>
  
  <!-- Digital lock pattern -->
  <rect x="26" y="12" width="12" height="8" rx="6" stroke="#10B981" stroke-width="1.5" fill="none"/>
  <rect x="28" y="16" width="8" height="6" rx="1" fill="#10B981"/>
  
  <!-- Circuit patterns -->
  <path d="M12 24 L20 24 M44 24 L52 24 M12 36 L16 36 M48 36 L52 36 M12 48 L20 48 M44 48 L52 48" 
        stroke="#10B981" stroke-width="1" stroke-dasharray="2,2"/>
  
  <!-- Digital corners -->
  <path d="M8 20 L10 20 L10 22" stroke="#10B981" stroke-width="1.5" fill="none"/>
  <path d="M54 20 L56 20 L56 22" stroke="#10B981" stroke-width="1.5" fill="none"/>
  <path d="M8 50 L10 50 L10 52" stroke="#10B981" stroke-width="1.5" fill="none"/>
  <path d="M54 50 L56 50 L56 52" stroke="#10B981" stroke-width="1.5" fill="none"/>
</svg>
